<svg xmlns="http://www.w3.org/2000/svg" viewBox="0 0 640 180" role="img" aria-label="TYPE.IO logo">
  <defs>
    <linearGradient id="mark" x1="0" x2="1" y1="0" y2="1">
      <stop offset="0" stop-color="#16f4ff"/>
      <stop offset="0.48" stop-color="#7cff6b"/>
      <stop offset="1" stop-color="#ff3df2"/>
    </linearGradient>
    <filter id="glow" x="-40%" y="-40%" width="180%" height="180%">
      <feGaussianBlur stdDeviation="5" result="blur"/>
      <feMerge>
        <feMergeNode in="blur"/>
        <feMergeNode in="SourceGraphic"/>
      </feMerge>
    </filter>
  </defs>
  <rect width="640" height="180" rx="20" fill="#080a12"/>
  <path d="M52 47h142v34h-49v56h-44V81H52V47Zm177 0h47l34 46 34-46h47l-59 77v13h-44v-13L229 47Zm198 0h97c34 0 56 16 56 45 0 28-22 45-56 45h-53v-34h47c10 0 17-4 17-11s-7-11-17-11h-91V47Z" fill="url(#mark)" filter="url(#glow)"/>
  <circle cx="578" cy="119" r="18" fill="#ff3df2" filter="url(#glow)"/>
  <text x="52" y="157" fill="#c9d7ff" font-family="Consolas, monospace" font-size="19" letter-spacing="4">REAL-TIME SURVIVAL TYPING</text>
</svg>
